<mxfile host="app.diagrams.net" modified="2021-02-08T03:23:47.733Z" agent="5.0 (Macintosh; Intel Mac OS X 10_14_5) AppleWebKit/537.36 (KHTML, like Gecko) Chrome/88.0.4324.96 Safari/537.36" etag="WeIp_R7Wvu5V9uzdXHDL" version="14.1.8" type="github">
  <diagram id="2zKPJm6RZe5YxxD_G8e3" name="Page-1">
    <mxGraphModel dx="1378" dy="771" grid="1" gridSize="10" guides="1" tooltips="1" connect="1" arrows="1" fold="1" page="1" pageScale="1" pageWidth="827" pageHeight="1169" math="0" shadow="0">
      <root>
        <mxCell id="0" />
        <mxCell id="1" parent="0" />
        <mxCell id="B92etjgKZU9o5aWsc3TI-1" value="" style="rounded=0;whiteSpace=wrap;html=1;dashed=1;fontSize=15;" parent="1" vertex="1">
          <mxGeometry x="423" y="592.5" width="397" height="167" as="geometry" />
        </mxCell>
        <mxCell id="B92etjgKZU9o5aWsc3TI-2" value="" style="rounded=0;whiteSpace=wrap;html=1;fontSize=15;" parent="1" vertex="1">
          <mxGeometry x="40" y="178" width="130" height="342" as="geometry" />
        </mxCell>
        <mxCell id="B92etjgKZU9o5aWsc3TI-3" value="" style="rounded=1;whiteSpace=wrap;html=1;" parent="1" vertex="1">
          <mxGeometry x="250" y="1280" width="550" height="160" as="geometry" />
        </mxCell>
        <mxCell id="B92etjgKZU9o5aWsc3TI-4" value="" style="rounded=1;whiteSpace=wrap;html=1;" parent="1" vertex="1">
          <mxGeometry x="245" y="1010" width="550" height="260" as="geometry" />
        </mxCell>
        <mxCell id="B92etjgKZU9o5aWsc3TI-5" value="" style="rounded=1;whiteSpace=wrap;html=1;" parent="1" vertex="1">
          <mxGeometry x="492" y="1070" width="243" height="100" as="geometry" />
        </mxCell>
        <mxCell id="B92etjgKZU9o5aWsc3TI-6" value="" style="rounded=1;whiteSpace=wrap;html=1;" parent="1" vertex="1">
          <mxGeometry x="288.5" y="1070" width="150" height="100" as="geometry" />
        </mxCell>
        <mxCell id="B92etjgKZU9o5aWsc3TI-7" value="直播间" style="rounded=0;whiteSpace=wrap;html=1;" parent="1" vertex="1">
          <mxGeometry x="340" y="264" width="93" height="30" as="geometry" />
        </mxCell>
        <mxCell id="B92etjgKZU9o5aWsc3TI-8" value="观众" style="shape=umlActor;verticalLabelPosition=bottom;verticalAlign=top;html=1;outlineConnect=0;align=left;" parent="1" vertex="1">
          <mxGeometry x="210" y="290" width="30.5" height="60" as="geometry" />
        </mxCell>
        <mxCell id="B92etjgKZU9o5aWsc3TI-9" value="网关hipposns(S0)" style="rounded=0;whiteSpace=wrap;html=1;fillColor=#dae8fc;strokeColor=#6c8ebf;" parent="1" vertex="1">
          <mxGeometry x="390" y="396" width="264" height="60" as="geometry" />
        </mxCell>
        <mxCell id="B92etjgKZU9o5aWsc3TI-10" value="" style="group" parent="1" vertex="1" connectable="0">
          <mxGeometry x="498" y="272" width="94" height="90" as="geometry" />
        </mxCell>
        <mxCell id="B92etjgKZU9o5aWsc3TI-11" value="合约" style="whiteSpace=wrap;html=1;aspect=fixed;" parent="B92etjgKZU9o5aWsc3TI-10" vertex="1">
          <mxGeometry width="50.4935064935065" height="50.4935064935065" as="geometry" />
        </mxCell>
        <mxCell id="B92etjgKZU9o5aWsc3TI-12" value="合约" style="whiteSpace=wrap;html=1;aspect=fixed;" parent="B92etjgKZU9o5aWsc3TI-10" vertex="1">
          <mxGeometry x="8.545454545454547" y="8.18181818181818" width="50.4935064935065" height="50.4935064935065" as="geometry" />
        </mxCell>
        <mxCell id="B92etjgKZU9o5aWsc3TI-13" value="合约" style="whiteSpace=wrap;html=1;aspect=fixed;" parent="B92etjgKZU9o5aWsc3TI-10" vertex="1">
          <mxGeometry x="17.090909090909093" y="16.36363636363636" width="50.4935064935065" height="50.4935064935065" as="geometry" />
        </mxCell>
        <mxCell id="B92etjgKZU9o5aWsc3TI-14" value="商品信息" style="whiteSpace=wrap;html=1;aspect=fixed;" parent="B92etjgKZU9o5aWsc3TI-10" vertex="1">
          <mxGeometry x="25.636363636363637" y="24.545454545454547" width="50.4935064935065" height="50.4935064935065" as="geometry" />
        </mxCell>
        <mxCell id="B92etjgKZU9o5aWsc3TI-15" value="" style="endArrow=classic;html=1;" parent="B92etjgKZU9o5aWsc3TI-10" edge="1">
          <mxGeometry width="50" height="50" relative="1" as="geometry">
            <mxPoint x="50.700000000000045" y="121.04000000000002" as="sourcePoint" />
            <mxPoint x="50.54000000000002" y="75.04000000000002" as="targetPoint" />
          </mxGeometry>
        </mxCell>
        <mxCell id="B92etjgKZU9o5aWsc3TI-16" value="信息聚合" style="edgeLabel;html=1;align=center;verticalAlign=middle;resizable=0;points=[];" parent="B92etjgKZU9o5aWsc3TI-15" vertex="1" connectable="0">
          <mxGeometry x="-0.0099" y="2" relative="1" as="geometry">
            <mxPoint x="4" as="offset" />
          </mxGeometry>
        </mxCell>
        <mxCell id="B92etjgKZU9o5aWsc3TI-17" value="商品服务&lt;br&gt;iis" style="rounded=0;whiteSpace=wrap;html=1;fillColor=#d5e8d4;strokeColor=#82b366;" parent="1" vertex="1">
          <mxGeometry x="493" y="490" width="77" height="40" as="geometry" />
        </mxCell>
        <mxCell id="B92etjgKZU9o5aWsc3TI-18" value="埋点Mongo" style="shape=cylinder3;whiteSpace=wrap;html=1;boundedLbl=1;backgroundOutline=1;size=15;align=center;fillColor=#f8cecc;strokeColor=#b85450;" parent="1" vertex="1">
          <mxGeometry x="895" y="643" width="60" height="80" as="geometry" />
        </mxCell>
        <mxCell id="B92etjgKZU9o5aWsc3TI-19" value="AgentSmith" style="rounded=1;whiteSpace=wrap;html=1;align=center;fillColor=#f8cecc;strokeColor=#b85450;" parent="1" vertex="1">
          <mxGeometry x="880" y="574" width="90" height="44" as="geometry" />
        </mxCell>
        <mxCell id="B92etjgKZU9o5aWsc3TI-20" value="实时数据流" style="rounded=0;whiteSpace=wrap;html=1;" parent="1" vertex="1">
          <mxGeometry x="700" y="128" width="120" height="60" as="geometry" />
        </mxCell>
        <mxCell id="B92etjgKZU9o5aWsc3TI-21" value="订单服务&lt;br&gt;orderv2" style="rounded=0;whiteSpace=wrap;html=1;fillColor=#d5e8d4;strokeColor=#82b366;" parent="1" vertex="1">
          <mxGeometry x="860" y="280" width="120" height="60" as="geometry" />
        </mxCell>
        <mxCell id="B92etjgKZU9o5aWsc3TI-22" value="离线报表" style="shape=note;whiteSpace=wrap;html=1;backgroundOutline=1;darkOpacity=0.05;align=center;size=22;" parent="1" vertex="1">
          <mxGeometry x="1040" y="643" width="60" height="87" as="geometry" />
        </mxCell>
        <mxCell id="B92etjgKZU9o5aWsc3TI-23" value="" style="edgeStyle=orthogonalEdgeStyle;rounded=0;orthogonalLoop=1;jettySize=auto;html=1;" parent="1" source="B92etjgKZU9o5aWsc3TI-24" target="B92etjgKZU9o5aWsc3TI-20" edge="1">
          <mxGeometry relative="1" as="geometry" />
        </mxCell>
        <mxCell id="B92etjgKZU9o5aWsc3TI-24" value="flink" style="shape=cylinder3;whiteSpace=wrap;html=1;boundedLbl=1;backgroundOutline=1;size=15;align=center;direction=south;fillColor=#f8cecc;strokeColor=#b85450;" parent="1" vertex="1">
          <mxGeometry x="870" y="138" width="100" height="40" as="geometry" />
        </mxCell>
        <mxCell id="B92etjgKZU9o5aWsc3TI-25" value="RabbitMq" style="shape=cylinder3;whiteSpace=wrap;html=1;boundedLbl=1;backgroundOutline=1;size=15;align=center;direction=south;fillColor=#f8cecc;strokeColor=#b85450;" parent="1" vertex="1">
          <mxGeometry x="710" y="490" width="100" height="40" as="geometry" />
        </mxCell>
        <mxCell id="B92etjgKZU9o5aWsc3TI-26" value="商详页面" style="shape=note;whiteSpace=wrap;html=1;backgroundOutline=1;darkOpacity=0.05;align=center;size=22;" parent="1" vertex="1">
          <mxGeometry x="725" y="265" width="70" height="90" as="geometry" />
        </mxCell>
        <mxCell id="B92etjgKZU9o5aWsc3TI-27" value="商详服务&lt;br&gt;jupiter" style="rounded=0;whiteSpace=wrap;html=1;fillColor=#d5e8d4;strokeColor=#82b366;" parent="1" vertex="1">
          <mxGeometry x="700" y="396" width="120" height="60" as="geometry" />
        </mxCell>
        <mxCell id="B92etjgKZU9o5aWsc3TI-28" value="" style="endArrow=classic;html=1;entryX=0.817;entryY=1.05;entryDx=0;entryDy=0;entryPerimeter=0;" parent="1" edge="1">
          <mxGeometry width="50" height="50" relative="1" as="geometry">
            <mxPoint x="730" y="640" as="sourcePoint" />
            <mxPoint x="636.0400000000004" y="459" as="targetPoint" />
            <Array as="points">
              <mxPoint x="730" y="580" />
              <mxPoint x="636" y="580" />
            </Array>
          </mxGeometry>
        </mxCell>
        <mxCell id="B92etjgKZU9o5aWsc3TI-29" value="合约信息" style="edgeLabel;html=1;align=center;verticalAlign=middle;resizable=0;points=[];" parent="B92etjgKZU9o5aWsc3TI-28" vertex="1" connectable="0">
          <mxGeometry x="-0.0099" y="2" relative="1" as="geometry">
            <mxPoint x="25" y="-3" as="offset" />
          </mxGeometry>
        </mxCell>
        <mxCell id="B92etjgKZU9o5aWsc3TI-30" value="" style="endArrow=classic;html=1;exitX=0.5;exitY=0;exitDx=0;exitDy=0;" parent="1" edge="1">
          <mxGeometry width="50" height="50" relative="1" as="geometry">
            <mxPoint x="530.5" y="486" as="sourcePoint" />
            <mxPoint x="530.5" y="456" as="targetPoint" />
          </mxGeometry>
        </mxCell>
        <mxCell id="B92etjgKZU9o5aWsc3TI-31" value="商品信息" style="edgeLabel;html=1;align=center;verticalAlign=middle;resizable=0;points=[];" parent="B92etjgKZU9o5aWsc3TI-30" vertex="1" connectable="0">
          <mxGeometry x="-0.1333" y="1" relative="1" as="geometry">
            <mxPoint x="2.289999999999999" as="offset" />
          </mxGeometry>
        </mxCell>
        <mxCell id="B92etjgKZU9o5aWsc3TI-32" value="薯券服务&lt;br&gt;CouponCenter" style="rounded=0;whiteSpace=wrap;html=1;fillColor=#d5e8d4;strokeColor=#82b366;" parent="1" vertex="1">
          <mxGeometry x="389" y="490" width="81" height="40" as="geometry" />
        </mxCell>
        <mxCell id="B92etjgKZU9o5aWsc3TI-33" value="" style="endArrow=classic;html=1;exitX=0.5;exitY=0;exitDx=0;exitDy=0;" parent="1" edge="1">
          <mxGeometry width="50" height="50" relative="1" as="geometry">
            <mxPoint x="426.5" y="486" as="sourcePoint" />
            <mxPoint x="426.5" y="456" as="targetPoint" />
          </mxGeometry>
        </mxCell>
        <mxCell id="B92etjgKZU9o5aWsc3TI-34" value="薯券信息" style="edgeLabel;html=1;align=center;verticalAlign=middle;resizable=0;points=[];" parent="B92etjgKZU9o5aWsc3TI-33" vertex="1" connectable="0">
          <mxGeometry x="-0.1333" y="1" relative="1" as="geometry">
            <mxPoint x="-1.5" as="offset" />
          </mxGeometry>
        </mxCell>
        <mxCell id="B92etjgKZU9o5aWsc3TI-35" value="" style="shape=flexArrow;endArrow=classic;html=1;endWidth=13.333333333333334;endSize=6.225;width=5;" parent="1" edge="1">
          <mxGeometry width="50" height="50" relative="1" as="geometry">
            <mxPoint x="250" y="302" as="sourcePoint" />
            <mxPoint x="485" y="302" as="targetPoint" />
          </mxGeometry>
        </mxCell>
        <mxCell id="B92etjgKZU9o5aWsc3TI-36" value="" style="shape=flexArrow;endArrow=classic;html=1;endWidth=13.333333333333334;endSize=6.225;width=5;" parent="1" edge="1">
          <mxGeometry width="50" height="50" relative="1" as="geometry">
            <mxPoint x="578" y="310" as="sourcePoint" />
            <mxPoint x="720" y="310" as="targetPoint" />
          </mxGeometry>
        </mxCell>
        <mxCell id="B92etjgKZU9o5aWsc3TI-37" value="点击商品" style="text;html=1;align=center;verticalAlign=middle;resizable=0;points=[];autosize=1;" parent="1" vertex="1">
          <mxGeometry x="612" y="290" width="60" height="20" as="geometry" />
        </mxCell>
        <mxCell id="B92etjgKZU9o5aWsc3TI-38" value="" style="endArrow=classic;html=1;entryX=0.5;entryY=0;entryDx=0;entryDy=0;exitX=0.5;exitY=1;exitDx=0;exitDy=0;exitPerimeter=0;" parent="1" source="B92etjgKZU9o5aWsc3TI-26" target="B92etjgKZU9o5aWsc3TI-27" edge="1">
          <mxGeometry width="50" height="50" relative="1" as="geometry">
            <mxPoint x="646" y="570" as="sourcePoint" />
            <mxPoint x="646.04" y="469" as="targetPoint" />
          </mxGeometry>
        </mxCell>
        <mxCell id="B92etjgKZU9o5aWsc3TI-39" value="" style="endArrow=classic;html=1;entryX=0.5;entryY=0;entryDx=0;entryDy=0;exitX=0.5;exitY=1;exitDx=0;exitDy=0;exitPerimeter=0;" parent="1" edge="1">
          <mxGeometry width="50" height="50" relative="1" as="geometry">
            <mxPoint x="759.5799999999999" y="454" as="sourcePoint" />
            <mxPoint x="759.5799999999999" y="490" as="targetPoint" />
          </mxGeometry>
        </mxCell>
        <mxCell id="B92etjgKZU9o5aWsc3TI-40" value="" style="endArrow=classic;html=1;exitX=0.5;exitY=1;exitDx=0;exitDy=0;exitPerimeter=0;" parent="1" edge="1">
          <mxGeometry width="50" height="50" relative="1" as="geometry">
            <mxPoint x="759.5799999999999" y="529" as="sourcePoint" />
            <mxPoint x="760" y="640" as="targetPoint" />
          </mxGeometry>
        </mxCell>
        <mxCell id="B92etjgKZU9o5aWsc3TI-41" value="异步埋点" style="edgeLabel;html=1;align=center;verticalAlign=middle;resizable=0;points=[];" parent="B92etjgKZU9o5aWsc3TI-40" vertex="1" connectable="0">
          <mxGeometry x="-0.0833" y="2" relative="1" as="geometry">
            <mxPoint as="offset" />
          </mxGeometry>
        </mxCell>
        <mxCell id="B92etjgKZU9o5aWsc3TI-42" value="有效埋点" style="endArrow=classic;html=1;entryX=0;entryY=0.5;entryDx=0;entryDy=0;exitX=1;exitY=0.5;exitDx=0;exitDy=0;" parent="1" source="B92etjgKZU9o5aWsc3TI-80" target="B92etjgKZU9o5aWsc3TI-19" edge="1">
          <mxGeometry x="0.1721" y="-5" width="50" height="50" relative="1" as="geometry">
            <mxPoint x="837" y="643" as="sourcePoint" />
            <mxPoint x="790" y="426" as="targetPoint" />
            <mxPoint as="offset" />
          </mxGeometry>
        </mxCell>
        <mxCell id="B92etjgKZU9o5aWsc3TI-43" value="有效埋点" style="endArrow=classic;html=1;entryX=0;entryY=0.5;entryDx=0;entryDy=0;entryPerimeter=0;exitX=1;exitY=0.5;exitDx=0;exitDy=0;" parent="1" source="B92etjgKZU9o5aWsc3TI-80" edge="1">
          <mxGeometry width="50" height="50" relative="1" as="geometry">
            <mxPoint x="840" y="646" as="sourcePoint" />
            <mxPoint x="895" y="688.9999999999995" as="targetPoint" />
          </mxGeometry>
        </mxCell>
        <mxCell id="B92etjgKZU9o5aWsc3TI-44" value="" style="endArrow=classic;html=1;exitX=1;exitY=0.5;exitDx=0;exitDy=0;exitPerimeter=0;" parent="1" source="B92etjgKZU9o5aWsc3TI-18" edge="1">
          <mxGeometry width="50" height="50" relative="1" as="geometry">
            <mxPoint x="720" y="490" as="sourcePoint" />
            <mxPoint x="1040" y="683" as="targetPoint" />
          </mxGeometry>
        </mxCell>
        <mxCell id="B92etjgKZU9o5aWsc3TI-45" value="" style="endArrow=classic;html=1;exitX=1;exitY=0.5;exitDx=0;exitDy=0;exitPerimeter=0;entryX=0.5;entryY=0;entryDx=0;entryDy=0;entryPerimeter=0;" parent="1" target="B92etjgKZU9o5aWsc3TI-24" edge="1">
          <mxGeometry width="50" height="50" relative="1" as="geometry">
            <mxPoint x="970" y="595.5799999999999" as="sourcePoint" />
            <mxPoint x="1040" y="290" as="targetPoint" />
            <Array as="points">
              <mxPoint x="1070" y="596" />
              <mxPoint x="1070" y="158" />
            </Array>
          </mxGeometry>
        </mxCell>
        <mxCell id="B92etjgKZU9o5aWsc3TI-46" value="" style="shape=flexArrow;endArrow=classic;html=1;endWidth=13.333333333333334;endSize=6.225;width=5;" parent="1" edge="1">
          <mxGeometry width="50" height="50" relative="1" as="geometry">
            <mxPoint x="800" y="310.1699999999996" as="sourcePoint" />
            <mxPoint x="860" y="310" as="targetPoint" />
          </mxGeometry>
        </mxCell>
        <mxCell id="B92etjgKZU9o5aWsc3TI-47" value="下单" style="text;html=1;align=center;verticalAlign=middle;resizable=0;points=[];autosize=1;" parent="1" vertex="1">
          <mxGeometry x="800" y="287" width="40" height="20" as="geometry" />
        </mxCell>
        <mxCell id="B92etjgKZU9o5aWsc3TI-48" value="" style="endArrow=classic;html=1;entryX=1;entryY=0.5;entryDx=0;entryDy=0;entryPerimeter=0;exitX=0.5;exitY=0;exitDx=0;exitDy=0;" parent="1" source="B92etjgKZU9o5aWsc3TI-21" target="B92etjgKZU9o5aWsc3TI-24" edge="1">
          <mxGeometry width="50" height="50" relative="1" as="geometry">
            <mxPoint x="720" y="380" as="sourcePoint" />
            <mxPoint x="770" y="330" as="targetPoint" />
          </mxGeometry>
        </mxCell>
        <mxCell id="B92etjgKZU9o5aWsc3TI-49" value="" style="endArrow=classic;html=1;exitX=0;exitY=0.5;exitDx=0;exitDy=0;entryX=0.5;entryY=0;entryDx=0;entryDy=0;" parent="1" source="B92etjgKZU9o5aWsc3TI-20" target="B92etjgKZU9o5aWsc3TI-7" edge="1">
          <mxGeometry width="50" height="50" relative="1" as="geometry">
            <mxPoint x="720" y="330" as="sourcePoint" />
            <mxPoint x="770" y="280" as="targetPoint" />
            <Array as="points">
              <mxPoint x="387" y="158" />
            </Array>
          </mxGeometry>
        </mxCell>
        <mxCell id="B92etjgKZU9o5aWsc3TI-50" value="用于抽奖，主播实时查看带货销售额等" style="edgeLabel;html=1;align=center;verticalAlign=middle;resizable=0;points=[];" parent="B92etjgKZU9o5aWsc3TI-49" vertex="1" connectable="0">
          <mxGeometry x="-0.1649" y="1" relative="1" as="geometry">
            <mxPoint as="offset" />
          </mxGeometry>
        </mxCell>
        <mxCell id="B92etjgKZU9o5aWsc3TI-51" value="领取直播、笔记专属券" style="text;html=1;strokeColor=none;fillColor=none;align=center;verticalAlign=middle;whiteSpace=wrap;rounded=0;" parent="1" vertex="1">
          <mxGeometry x="710" y="240" width="90" height="20" as="geometry" />
        </mxCell>
        <mxCell id="B92etjgKZU9o5aWsc3TI-52" value="财务结算" style="shape=note;whiteSpace=wrap;html=1;backgroundOutline=1;darkOpacity=0.05;align=center;size=22;" parent="1" vertex="1">
          <mxGeometry x="1150" y="574" width="60" height="87" as="geometry" />
        </mxCell>
        <mxCell id="B92etjgKZU9o5aWsc3TI-53" value="BI分析" style="shape=note;whiteSpace=wrap;html=1;backgroundOutline=1;darkOpacity=0.05;align=center;size=22;" parent="1" vertex="1">
          <mxGeometry x="1150" y="690" width="60" height="87" as="geometry" />
        </mxCell>
        <mxCell id="B92etjgKZU9o5aWsc3TI-54" value="" style="endArrow=classic;html=1;" parent="1" edge="1">
          <mxGeometry width="50" height="50" relative="1" as="geometry">
            <mxPoint x="1110" y="690" as="sourcePoint" />
            <mxPoint x="1140" y="630" as="targetPoint" />
          </mxGeometry>
        </mxCell>
        <mxCell id="B92etjgKZU9o5aWsc3TI-55" value="" style="endArrow=classic;html=1;" parent="1" edge="1">
          <mxGeometry width="50" height="50" relative="1" as="geometry">
            <mxPoint x="1110" y="690" as="sourcePoint" />
            <mxPoint x="1140" y="740" as="targetPoint" />
          </mxGeometry>
        </mxCell>
        <mxCell id="B92etjgKZU9o5aWsc3TI-56" value="" style="shape=flexArrow;endArrow=classic;html=1;endWidth=13.333333333333334;endSize=6.225;width=5;" parent="1" edge="1">
          <mxGeometry width="50" height="50" relative="1" as="geometry">
            <mxPoint x="250" y="346" as="sourcePoint" />
            <mxPoint x="485" y="346" as="targetPoint" />
          </mxGeometry>
        </mxCell>
        <mxCell id="B92etjgKZU9o5aWsc3TI-57" value="笔详页" style="rounded=0;whiteSpace=wrap;html=1;" parent="1" vertex="1">
          <mxGeometry x="340" y="309" width="93" height="30" as="geometry" />
        </mxCell>
        <mxCell id="B92etjgKZU9o5aWsc3TI-58" value="笔记" style="shape=note;whiteSpace=wrap;html=1;backgroundOutline=1;darkOpacity=0.05;align=center;size=22;" parent="1" vertex="1">
          <mxGeometry x="189.5" y="587" width="70" height="90" as="geometry" />
        </mxCell>
        <mxCell id="B92etjgKZU9o5aWsc3TI-59" value="" style="shape=flexArrow;endArrow=classic;html=1;endWidth=13.333333333333334;endSize=6.225;width=5;" parent="1" edge="1">
          <mxGeometry width="50" height="50" relative="1" as="geometry">
            <mxPoint x="224.50000000000045" y="370" as="sourcePoint" />
            <mxPoint x="224.50000000000045" y="579" as="targetPoint" />
          </mxGeometry>
        </mxCell>
        <mxCell id="B92etjgKZU9o5aWsc3TI-60" value="创建笔记" style="text;html=1;align=center;verticalAlign=middle;resizable=0;points=[];autosize=1;rotation=90;horizontal=0;" parent="1" vertex="1">
          <mxGeometry x="228.5" y="445" width="60" height="20" as="geometry" />
        </mxCell>
        <mxCell id="B92etjgKZU9o5aWsc3TI-61" value="合约信息" style="rounded=0;whiteSpace=wrap;html=1;" parent="1" vertex="1">
          <mxGeometry x="315" y="1110" width="97" height="40" as="geometry" />
        </mxCell>
        <mxCell id="B92etjgKZU9o5aWsc3TI-62" value="达人选品" style="rounded=0;whiteSpace=wrap;html=1;" parent="1" vertex="1">
          <mxGeometry x="615" y="1110" width="97" height="40" as="geometry" />
        </mxCell>
        <mxCell id="B92etjgKZU9o5aWsc3TI-63" value="分销计划" style="rounded=0;whiteSpace=wrap;html=1;" parent="1" vertex="1">
          <mxGeometry x="508" y="1110" width="97" height="40" as="geometry" />
        </mxCell>
        <mxCell id="B92etjgKZU9o5aWsc3TI-64" value="核心模块" style="text;html=1;strokeColor=none;fillColor=none;align=center;verticalAlign=middle;whiteSpace=wrap;rounded=0;" parent="1" vertex="1">
          <mxGeometry x="338" y="1080" width="51" height="20" as="geometry" />
        </mxCell>
        <mxCell id="B92etjgKZU9o5aWsc3TI-65" value="选品中心" style="text;html=1;strokeColor=none;fillColor=none;align=center;verticalAlign=middle;whiteSpace=wrap;rounded=0;" parent="1" vertex="1">
          <mxGeometry x="588" y="1080" width="51" height="20" as="geometry" />
        </mxCell>
        <mxCell id="B92etjgKZU9o5aWsc3TI-66" value="分销埋点" style="rounded=0;whiteSpace=wrap;html=1;" parent="1" vertex="1">
          <mxGeometry x="275" y="1200" width="97" height="40" as="geometry" />
        </mxCell>
        <mxCell id="B92etjgKZU9o5aWsc3TI-67" value="物料信息" style="rounded=0;whiteSpace=wrap;html=1;" parent="1" vertex="1">
          <mxGeometry x="405.5" y="1200" width="97" height="40" as="geometry" />
        </mxCell>
        <mxCell id="B92etjgKZU9o5aWsc3TI-68" value="外链转换" style="rounded=0;whiteSpace=wrap;html=1;" parent="1" vertex="1">
          <mxGeometry x="532.5" y="1200" width="97" height="40" as="geometry" />
        </mxCell>
        <mxCell id="B92etjgKZU9o5aWsc3TI-69" value="薯券绑定" style="rounded=0;whiteSpace=wrap;html=1;" parent="1" vertex="1">
          <mxGeometry x="665.5" y="1200" width="97" height="40" as="geometry" />
        </mxCell>
        <mxCell id="B92etjgKZU9o5aWsc3TI-70" value="分销核心" style="text;html=1;strokeColor=none;fillColor=none;align=center;verticalAlign=middle;whiteSpace=wrap;rounded=0;" parent="1" vertex="1">
          <mxGeometry x="453" y="1020" width="122" height="40" as="geometry" />
        </mxCell>
        <mxCell id="B92etjgKZU9o5aWsc3TI-71" value="MongoDB" style="rounded=0;whiteSpace=wrap;html=1;" parent="1" vertex="1">
          <mxGeometry x="327" y="1320" width="97" height="40" as="geometry" />
        </mxCell>
        <mxCell id="B92etjgKZU9o5aWsc3TI-72" value="Redis" style="rounded=0;whiteSpace=wrap;html=1;" parent="1" vertex="1">
          <mxGeometry x="465" y="1320" width="97" height="40" as="geometry" />
        </mxCell>
        <mxCell id="B92etjgKZU9o5aWsc3TI-73" value="rabbitmq" style="rounded=0;whiteSpace=wrap;html=1;" parent="1" vertex="1">
          <mxGeometry x="604" y="1320" width="97" height="40" as="geometry" />
        </mxCell>
        <mxCell id="B92etjgKZU9o5aWsc3TI-74" value="基础服务" style="text;html=1;strokeColor=none;fillColor=none;align=center;verticalAlign=middle;whiteSpace=wrap;rounded=0;" parent="1" vertex="1">
          <mxGeometry x="453" y="1280" width="122" height="40" as="geometry" />
        </mxCell>
        <mxCell id="B92etjgKZU9o5aWsc3TI-75" value="网关Hippo-sns" style="rounded=1;whiteSpace=wrap;html=1;" parent="1" vertex="1">
          <mxGeometry x="245" y="950" width="545" height="50" as="geometry" />
        </mxCell>
        <mxCell id="B92etjgKZU9o5aWsc3TI-76" value="kafka" style="rounded=0;whiteSpace=wrap;html=1;" parent="1" vertex="1">
          <mxGeometry x="327" y="1380" width="97" height="40" as="geometry" />
        </mxCell>
        <mxCell id="B92etjgKZU9o5aWsc3TI-77" value="agent-smith" style="rounded=0;whiteSpace=wrap;html=1;" parent="1" vertex="1">
          <mxGeometry x="465.5" y="1380" width="97" height="40" as="geometry" />
        </mxCell>
        <mxCell id="B92etjgKZU9o5aWsc3TI-78" value="flink" style="rounded=0;whiteSpace=wrap;html=1;" parent="1" vertex="1">
          <mxGeometry x="604" y="1380" width="97" height="40" as="geometry" />
        </mxCell>
        <mxCell id="B92etjgKZU9o5aWsc3TI-79" value="分销中台" style="text;html=1;strokeColor=none;fillColor=none;align=center;verticalAlign=middle;whiteSpace=wrap;rounded=0;fontSize=15;" parent="1" vertex="1">
          <mxGeometry x="438.5" y="592.5" width="110" height="50" as="geometry" />
        </mxCell>
        <mxCell id="B92etjgKZU9o5aWsc3TI-80" value="核心服务dbis(S0)" style="rounded=0;whiteSpace=wrap;html=1;fillColor=#dae8fc;strokeColor=#6c8ebf;" parent="1" vertex="1">
          <mxGeometry x="709" y="643" width="91" height="40" as="geometry" />
        </mxCell>
        <mxCell id="B92etjgKZU9o5aWsc3TI-81" value="物料服务dms(S0)" style="rounded=0;whiteSpace=wrap;html=1;fillColor=#dae8fc;strokeColor=#6c8ebf;" parent="1" vertex="1">
          <mxGeometry x="580" y="643" width="91" height="40" as="geometry" />
        </mxCell>
        <mxCell id="B92etjgKZU9o5aWsc3TI-82" value="用户服务dus(S1)" style="rounded=0;whiteSpace=wrap;html=1;fillColor=#dae8fc;strokeColor=#6c8ebf;" parent="1" vertex="1">
          <mxGeometry x="452" y="643" width="91" height="40" as="geometry" />
        </mxCell>
        <mxCell id="B92etjgKZU9o5aWsc3TI-83" value="笔记绑定服务nbs(S0)" style="rounded=0;whiteSpace=wrap;html=1;fillColor=#dae8fc;strokeColor=#6c8ebf;" parent="1" vertex="1">
          <mxGeometry x="298" y="730" width="91" height="40" as="geometry" />
        </mxCell>
        <mxCell id="B92etjgKZU9o5aWsc3TI-84" value="" style="endArrow=classic;html=1;fontSize=15;exitX=0.5;exitY=1;exitDx=0;exitDy=0;exitPerimeter=0;" parent="1" source="B92etjgKZU9o5aWsc3TI-58" edge="1">
          <mxGeometry width="50" height="50" relative="1" as="geometry">
            <mxPoint x="220" y="690" as="sourcePoint" />
            <mxPoint x="290" y="750" as="targetPoint" />
            <Array as="points">
              <mxPoint x="225" y="750" />
            </Array>
          </mxGeometry>
        </mxCell>
        <mxCell id="B92etjgKZU9o5aWsc3TI-85" value="&lt;font style=&quot;font-size: 12px&quot;&gt;高级选项绑定商品&lt;/font&gt;" style="edgeLabel;html=1;align=center;verticalAlign=middle;resizable=0;points=[];fontSize=15;" parent="B92etjgKZU9o5aWsc3TI-84" vertex="1" connectable="0">
          <mxGeometry x="-0.6376" relative="1" as="geometry">
            <mxPoint as="offset" />
          </mxGeometry>
        </mxCell>
        <mxCell id="B92etjgKZU9o5aWsc3TI-86" value="" style="endArrow=classic;html=1;fontSize=15;exitX=0.5;exitY=0;exitDx=0;exitDy=0;entryX=0;entryY=0.5;entryDx=0;entryDy=0;" parent="1" source="B92etjgKZU9o5aWsc3TI-83" target="B92etjgKZU9o5aWsc3TI-9" edge="1">
          <mxGeometry width="50" height="50" relative="1" as="geometry">
            <mxPoint x="320" y="690" as="sourcePoint" />
            <mxPoint x="370" y="426" as="targetPoint" />
            <Array as="points">
              <mxPoint x="344" y="426" />
            </Array>
          </mxGeometry>
        </mxCell>
        <mxCell id="B92etjgKZU9o5aWsc3TI-87" value="&lt;span style=&quot;font-size: 12px&quot;&gt;笔记绑定信息&lt;/span&gt;" style="edgeLabel;html=1;align=center;verticalAlign=middle;resizable=0;points=[];fontSize=15;" parent="B92etjgKZU9o5aWsc3TI-86" vertex="1" connectable="0">
          <mxGeometry x="-0.0974" y="-1" relative="1" as="geometry">
            <mxPoint x="-1.29" y="-100" as="offset" />
          </mxGeometry>
        </mxCell>
        <mxCell id="B92etjgKZU9o5aWsc3TI-88" value="淘宝联盟" style="rounded=0;whiteSpace=wrap;html=1;fillColor=#d5e8d4;strokeColor=#82b366;" parent="1" vertex="1">
          <mxGeometry x="532.5" y="820" width="76" height="40" as="geometry" />
        </mxCell>
        <mxCell id="B92etjgKZU9o5aWsc3TI-89" value="" style="shape=flexArrow;endArrow=classic;html=1;endWidth=13.333333333333334;endSize=6.225;width=5;" parent="1" edge="1">
          <mxGeometry x="40" y="180" width="50" height="50" as="geometry">
            <mxPoint x="61" y="227.57999999999993" as="sourcePoint" />
            <mxPoint x="151" y="227.57999999999993" as="targetPoint" />
          </mxGeometry>
        </mxCell>
        <mxCell id="B92etjgKZU9o5aWsc3TI-90" value="用户行为" style="text;html=1;align=center;verticalAlign=middle;resizable=0;points=[];autosize=1;" parent="1" vertex="1">
          <mxGeometry x="61" y="207.57999999999998" width="60" height="20" as="geometry" />
        </mxCell>
        <mxCell id="B92etjgKZU9o5aWsc3TI-91" value="" style="endArrow=classic;html=1;" parent="1" edge="1">
          <mxGeometry x="40" y="180" width="50" height="50" as="geometry">
            <mxPoint x="59" y="273" as="sourcePoint" />
            <mxPoint x="148" y="273" as="targetPoint" />
          </mxGeometry>
        </mxCell>
        <mxCell id="B92etjgKZU9o5aWsc3TI-92" value="数据流" style="edgeLabel;html=1;align=center;verticalAlign=middle;resizable=0;points=[];" parent="B92etjgKZU9o5aWsc3TI-91" vertex="1" connectable="0">
          <mxGeometry x="-0.2622" y="2" relative="1" as="geometry">
            <mxPoint as="offset" />
          </mxGeometry>
        </mxCell>
        <mxCell id="B92etjgKZU9o5aWsc3TI-93" value="内部服务" style="rounded=0;whiteSpace=wrap;html=1;fillColor=#dae8fc;strokeColor=#6c8ebf;" parent="1" vertex="1">
          <mxGeometry x="59.5" y="315" width="91" height="40" as="geometry" />
        </mxCell>
        <mxCell id="B92etjgKZU9o5aWsc3TI-94" value="外部依赖" style="rounded=0;whiteSpace=wrap;html=1;fillColor=#d5e8d4;strokeColor=#82b366;" parent="1" vertex="1">
          <mxGeometry x="59.5" y="380" width="90.5" height="40" as="geometry" />
        </mxCell>
        <mxCell id="B92etjgKZU9o5aWsc3TI-95" value="中间件" style="rounded=1;whiteSpace=wrap;html=1;align=center;fillColor=#f8cecc;strokeColor=#b85450;" parent="1" vertex="1">
          <mxGeometry x="60" y="440" width="90" height="44" as="geometry" />
        </mxCell>
        <mxCell id="B92etjgKZU9o5aWsc3TI-96" value="" style="endArrow=classic;html=1;fontSize=15;" parent="1" edge="1">
          <mxGeometry width="50" height="50" relative="1" as="geometry">
            <mxPoint x="600" y="640" as="sourcePoint" />
            <mxPoint x="600" y="460" as="targetPoint" />
          </mxGeometry>
        </mxCell>
        <mxCell id="B92etjgKZU9o5aWsc3TI-97" value="&lt;span style=&quot;font-size: 12px&quot;&gt;统一的&lt;br&gt;分销物料协议&lt;/span&gt;" style="edgeLabel;html=1;align=center;verticalAlign=middle;resizable=0;points=[];fontSize=15;" parent="B92etjgKZU9o5aWsc3TI-96" vertex="1" connectable="0">
          <mxGeometry x="0.7125" y="1" relative="1" as="geometry">
            <mxPoint x="-7" y="74" as="offset" />
          </mxGeometry>
        </mxCell>
        <mxCell id="B92etjgKZU9o5aWsc3TI-98" value="京东分销" style="rounded=0;whiteSpace=wrap;html=1;fillColor=#d5e8d4;strokeColor=#82b366;" parent="1" vertex="1">
          <mxGeometry x="618" y="820" width="76" height="40" as="geometry" />
        </mxCell>
        <mxCell id="B92etjgKZU9o5aWsc3TI-99" value="..." style="rounded=0;whiteSpace=wrap;html=1;fillColor=#d5e8d4;strokeColor=#82b366;" parent="1" vertex="1">
          <mxGeometry x="704" y="820" width="76" height="40" as="geometry" />
        </mxCell>
        <mxCell id="B92etjgKZU9o5aWsc3TI-100" value="" style="endArrow=classic;html=1;fontSize=15;exitX=0.5;exitY=0;exitDx=0;exitDy=0;entryX=0.5;entryY=1;entryDx=0;entryDy=0;" parent="1" source="B92etjgKZU9o5aWsc3TI-88" target="B92etjgKZU9o5aWsc3TI-81" edge="1">
          <mxGeometry width="50" height="50" relative="1" as="geometry">
            <mxPoint x="520" y="810" as="sourcePoint" />
            <mxPoint x="626" y="690" as="targetPoint" />
          </mxGeometry>
        </mxCell>
        <mxCell id="B92etjgKZU9o5aWsc3TI-101" value="" style="endArrow=classic;html=1;fontSize=15;exitX=0.5;exitY=0;exitDx=0;exitDy=0;dashed=1;entryX=0.5;entryY=1;entryDx=0;entryDy=0;" parent="1" source="B92etjgKZU9o5aWsc3TI-98" target="B92etjgKZU9o5aWsc3TI-81" edge="1">
          <mxGeometry width="50" height="50" relative="1" as="geometry">
            <mxPoint x="635.5" y="693" as="sourcePoint" />
            <mxPoint x="630" y="690" as="targetPoint" />
          </mxGeometry>
        </mxCell>
        <mxCell id="B92etjgKZU9o5aWsc3TI-102" value="" style="endArrow=classic;html=1;fontSize=15;dashed=1;exitX=0.5;exitY=0;exitDx=0;exitDy=0;entryX=0.5;entryY=1;entryDx=0;entryDy=0;" parent="1" source="B92etjgKZU9o5aWsc3TI-99" target="B92etjgKZU9o5aWsc3TI-81" edge="1">
          <mxGeometry width="50" height="50" relative="1" as="geometry">
            <mxPoint x="790" y="800" as="sourcePoint" />
            <mxPoint x="640" y="690" as="targetPoint" />
          </mxGeometry>
        </mxCell>
      </root>
    </mxGraphModel>
  </diagram>
</mxfile>
